<?xml version="1.0" encoding="UTF-8"?> <svg xmlns="http://www.w3.org/2000/svg" viewBox="0 0 402.77 134.29" width="402px" height="134px"><path d="M50.24,1.05a1,1,0,0,1,1-1H73.73a1,1,0,0,1,1,1.05V5.57a1,1,0,0,1-1,1H57.41v9H71a1.08,1.08,0,0,1,1,1v4.58a1,1,0,0,1-1,1H57.41V32H73.73a1,1,0,0,1,1,1v4.52a1,1,0,0,1-1,1.05H51.29a1,1,0,0,1-1-1.05Z" style="fill:#003b5d"></path><path d="M79.91,14.06a1.18,1.18,0,0,1,1.32-1.16,3.83,3.83,0,0,1,4,3.2,9.6,9.6,0,0,1,7.66-3.53c3.7,0,5.51,1.32,7.61,3.86a10.86,10.86,0,0,1,8.21-3.86c8.16,0,10.09,5.18,10.09,11.8v13a1.23,1.23,0,0,1-1.27,1.21h-4.41a1.22,1.22,0,0,1-1.21-1.21V24.2c0-3.31-1.21-5.35-4.41-5.35a4.87,4.87,0,0,0-4.74,2.65s.11,1.27.11,2.43V37.38a1.26,1.26,0,0,1-1.21,1.21H97.11a1.19,1.19,0,0,1-1.22-1.21V24.2c0-3.31-.93-5.35-4.19-5.35s-4.3,2.21-4.9,4V37.38a1.26,1.26,0,0,1-1.22,1.21H81.12a1.26,1.26,0,0,1-1.21-1.21Z" style="fill:#003b5d"></path><path d="M125.28,1.21A1.31,1.31,0,0,1,126.49,0H131a1.26,1.26,0,0,1,1.21,1.21V13.67a18.24,18.24,0,0,1,6.23-1.1c7.56,0,12.35,5.84,12.35,13.29,0,7.27-5,13.34-12,13.34a11.46,11.46,0,0,1-8.22-3.48,3.78,3.78,0,0,1-4,3.09,1.18,1.18,0,0,1-1.32-1.16Zm6.89,28.17a5.84,5.84,0,0,0,5.63,3.53c4,0,6-3.47,6-7s-2.15-7-6.34-7a10.06,10.06,0,0,0-5.29,1.44Z" style="fill:#003b5d"></path><path d="M156.05,14.06a1.18,1.18,0,0,1,1.32-1.16,3.88,3.88,0,0,1,4,3.47,8.93,8.93,0,0,1,7.11-3.8c3,0,5.52.83,4.8,2.48l-1.65,3.75a1.06,1.06,0,0,1-1.49.55,5.14,5.14,0,0,0-2.37-.5,5.53,5.53,0,0,0-4.85,2.65V37.38c0,.94-.61,1.21-1.44,1.21h-4.24a1.26,1.26,0,0,1-1.21-1.21Z" style="fill:#003b5d"></path><path d="M185.1,22.49a18.66,18.66,0,0,1,4.91.72c.11-3.25-2.1-4.8-4.8-4.8a21.36,21.36,0,0,0-5.9.94c-.82.28-1.32-.33-1.43-1.1l-.55-2.87a1.15,1.15,0,0,1,.82-1.54,24.92,24.92,0,0,1,7.45-1.27c7.38,0,10.86,4.13,10.86,11.08v14a1.18,1.18,0,0,1-1.33,1.16,3.74,3.74,0,0,1-3.8-2.59,11.28,11.28,0,0,1-7.77,3c-5.07,0-8.6-3.26-8.6-8.71C175,26,178.65,22.49,185.1,22.49Zm.17,11.58a5.45,5.45,0,0,0,4.57-2.7V27.62a10.19,10.19,0,0,0-3.75-.77c-2.92,0-4.52,1.38-4.52,3.64A3.36,3.36,0,0,0,185.27,34.07Z" style="fill:#003b5d"></path><path d="M215,12.57a12.64,12.64,0,0,1,9.49,4.3c.55.55.27,1.27-.28,1.82l-2.32,2.53c-.55.61-1.15.34-1.65-.16a6.92,6.92,0,0,0-5.07-2.21,6.69,6.69,0,0,0-6.73,7c0,4,2.7,7,6.67,7a6.75,6.75,0,0,0,5.41-2.81,1.19,1.19,0,0,1,1.6-.16L224.58,32c.6.55.88,1.16.44,1.82a11.41,11.41,0,0,1-10.09,5.35,13.32,13.32,0,1,1,0-26.63Z" style="fill:#003b5d"></path><path d="M240.79,12.57a11.42,11.42,0,0,1,11.68,11.8,15.24,15.24,0,0,1-.11,1.65,1.29,1.29,0,0,1-1.21,1.16H234.83a6.13,6.13,0,0,0,6.34,5.9,8.43,8.43,0,0,0,5.46-1.88c.61-.49,1.27-.55,1.65,0l2.15,2.87a1.06,1.06,0,0,1-.11,1.65,14.33,14.33,0,0,1-9.48,3.48c-7.61,0-12.9-6.07-12.9-13.34S233.23,12.57,240.79,12.57Zm4.74,10.09a4.66,4.66,0,0,0-4.91-4.41c-3.09,0-5.07,1.87-5.4,4.41Z" style="fill:#003b5d"></path><path d="M103.32,45.07a4.3,4.3,0,0,1,8.59,0,4.3,4.3,0,1,1-8.59,0Zm1,9.77a1.19,1.19,0,0,1,1.18-1.18h4.38a1.2,1.2,0,0,1,1.19,1.18V77.42a1.24,1.24,0,0,1-1.19,1.19h-4.38a1.23,1.23,0,0,1-1.18-1.19Z" style="fill:#006697"></path><path d="M115.26,54.58a1.15,1.15,0,0,1,1.29-1.14,3.7,3.7,0,0,1,3.89,3.24,10.3,10.3,0,0,1,8.05-3.56c7.94,0,10,5.34,10,11.39V77.42a1.24,1.24,0,0,1-1.19,1.19h-4.37a1.2,1.2,0,0,1-1.19-1.19V64.51c0-3.24-1.3-5.24-4.32-5.24a5.49,5.49,0,0,0-5.4,3.89V77.42c0,.92-.38,1.19-1.57,1.19h-4a1.23,1.23,0,0,1-1.19-1.19Z" style="fill:#006697"></path><path d="M142.42,54.58a1.16,1.16,0,0,1,1.3-1.14,3.7,3.7,0,0,1,3.88,3.24,10.3,10.3,0,0,1,8.05-3.56c7.94,0,10,5.34,10,11.39V77.42a1.23,1.23,0,0,1-1.19,1.19h-4.37a1.2,1.2,0,0,1-1.19-1.19V64.51c0-3.24-1.3-5.24-4.32-5.24a5.49,5.49,0,0,0-5.4,3.89V77.42c0,.92-.38,1.19-1.57,1.19h-4a1.23,1.23,0,0,1-1.19-1.19Z" style="fill:#006697"></path><path d="M180.81,53.12a13,13,0,1,1-12.74,13A13,13,0,0,1,180.81,53.12Zm0,19.92a6.76,6.76,0,0,0,6.54-7,6.52,6.52,0,1,0-6.54,7Z" style="fill:#006697"></path><path d="M192.86,55.12c-.38-.76-.06-1.46.86-1.46h5.13a1.14,1.14,0,0,1,1.13.7l5.19,12.31h.11l5.5-12.31c.33-.65.87-.7,1.57-.7h4.54a.91.91,0,0,1,.86,1.46L206.52,78.55a1.26,1.26,0,0,1-1.08.65h-.33a1.26,1.26,0,0,1-1.08-.65Z" style="fill:#006697"></path><path d="M226.93,62.84a18.38,18.38,0,0,1,4.81.7c.1-3.19-2.06-4.7-4.7-4.7a20.93,20.93,0,0,0-5.78.92c-.81.27-1.3-.32-1.4-1.08l-.54-2.81a1.13,1.13,0,0,1,.81-1.51,24.17,24.17,0,0,1,7.29-1.24c7.23,0,10.63,4.05,10.63,10.85V77.69a1.15,1.15,0,0,1-1.29,1.13A3.67,3.67,0,0,1,233,76.28a11.07,11.07,0,0,1-7.61,2.92c-5,0-8.43-3.19-8.43-8.53C217,66.24,220.61,62.84,226.93,62.84Zm.16,11.34a5.34,5.34,0,0,0,4.48-2.65V67.86a9.87,9.87,0,0,0-3.67-.76c-2.86,0-4.43,1.35-4.43,3.57A3.3,3.3,0,0,0,227.09,74.18Z" style="fill:#006697"></path><path d="M241.29,59.71a1.19,1.19,0,0,1-1.13-1.19V54.84a1.12,1.12,0,0,1,1.13-1.18h2.43V46.75a1.24,1.24,0,0,1,1.19-1.19h4.43a1.15,1.15,0,0,1,1.13,1.19v6.91h5.84a1.16,1.16,0,0,1,1.18,1.18v3.68a1.24,1.24,0,0,1-1.18,1.19h-5.84v10c0,2.43,1.08,3.4,2.65,3.4a10.2,10.2,0,0,0,3.19-.59,1,1,0,0,1,1.4.65l.7,3.24a1.21,1.21,0,0,1-.7,1.45A13,13,0,0,1,252,79.2c-5.08,0-8.27-3.29-8.27-9V59.71Z" style="fill:#006697"></path><path d="M259.44,45.07a4.21,4.21,0,0,1,4.26-4.27,4.3,4.3,0,1,1-4.26,4.27Zm1,9.77a1.19,1.19,0,0,1,1.19-1.18H266a1.19,1.19,0,0,1,1.19,1.18V77.42A1.23,1.23,0,0,1,266,78.61H261.6a1.23,1.23,0,0,1-1.19-1.19Z" style="fill:#006697"></path><path d="M282.6,53.12a13,13,0,1,1-12.74,13A13,13,0,0,1,282.6,53.12Zm0,19.92a6.76,6.76,0,0,0,6.54-7,6.52,6.52,0,1,0-6.54,7Z" style="fill:#006697"></path><path d="M298.05,54.58a1.15,1.15,0,0,1,1.29-1.14,3.7,3.7,0,0,1,3.89,3.24,10.28,10.28,0,0,1,8-3.56c7.94,0,10,5.34,10,11.39V77.42a1.24,1.24,0,0,1-1.19,1.19h-4.37a1.2,1.2,0,0,1-1.19-1.19V64.51c0-3.24-1.3-5.24-4.32-5.24a5.49,5.49,0,0,0-5.4,3.89V77.42c0,.92-.38,1.19-1.57,1.19h-4a1.23,1.23,0,0,1-1.18-1.19Z" style="fill:#006697"></path><path d="M333.47,64.73a8.74,8.74,0,0,1,2.31.34,2.07,2.07,0,0,0-2.26-2.27,9.9,9.9,0,0,0-2.78.45c-.39.13-.63-.16-.68-.52l-.26-1.36a.54.54,0,0,1,.39-.72,11.48,11.48,0,0,1,3.51-.6c3.49,0,5.12,2,5.12,5.22v6.61a.55.55,0,0,1-.62.54,1.76,1.76,0,0,1-1.79-1.22,5.35,5.35,0,0,1-3.67,1.41,3.83,3.83,0,0,1-4.06-4.11C328.68,66.37,330.43,64.73,333.47,64.73Zm.08,5.46a2.55,2.55,0,0,0,2.15-1.28V67.15a4.67,4.67,0,0,0-1.76-.37c-1.38,0-2.14.65-2.14,1.72A1.59,1.59,0,0,0,333.55,70.19Z" style="fill:#0b1e40"></path><path d="M341.4,60.75a.55.55,0,0,1,.62-.55,1.78,1.78,0,0,1,1.87,1.56,5,5,0,0,1,3.88-1.71c3.82,0,4.81,2.57,4.81,5.48v6.22a.6.6,0,0,1-.57.57H349.9a.58.58,0,0,1-.57-.57V65.53c0-1.56-.63-2.52-2.08-2.52a2.64,2.64,0,0,0-2.6,1.87v6.87c0,.44-.19.57-.76.57H342a.59.59,0,0,1-.57-.57Z" style="fill:#0b1e40"></path><path d="M360.35,60.05a8.92,8.92,0,0,1,2.89.49V54.69a.61.61,0,0,1,.57-.57h2.11a.6.6,0,0,1,.57.57V71.88a.56.56,0,0,1-.63.54,1.77,1.77,0,0,1-1.87-1.5,5.17,5.17,0,0,1-3.85,1.69c-3.27,0-5.74-2.66-5.74-6.3S356.76,60.05,360.35,60.05Zm2.89,3.64a4.75,4.75,0,0,0-2.5-.68,3,3,0,0,0-3,3.3c0,1.69,1,3.33,2.83,3.33A2.76,2.76,0,0,0,363.24,68Z" style="fill:#0b1e40"></path><path d="M12.85,95.14a11.42,11.42,0,0,1,11.68,11.8,15.07,15.07,0,0,1-.11,1.65,1.28,1.28,0,0,1-1.21,1.16H6.89a6.13,6.13,0,0,0,6.34,5.9,8.48,8.48,0,0,0,5.46-1.87c.61-.5,1.27-.55,1.65,0l2.15,2.86a1.08,1.08,0,0,1-.11,1.66,14.37,14.37,0,0,1-9.48,3.47c-7.61,0-12.9-6.06-12.9-13.34S5.29,95.14,12.85,95.14Zm4.74,10.09a4.66,4.66,0,0,0-4.91-4.41,5.06,5.06,0,0,0-5.4,4.41Z" style="fill:#dca91e"></path><path d="M24.87,119.29,33,108.21,25.2,97.57a1.11,1.11,0,0,1,.88-1.88h5a2.19,2.19,0,0,1,2.09.89l4.25,6.67h.11l4.35-6.67a2,2,0,0,1,1.93-.89h5.4c1.11,0,1.38,1,.72,1.88L42.12,108.1,50,119.29c.61.83.34,1.87-.71,1.87H44a2,2,0,0,1-1.77-1l-4.68-7h-.11l-5,7.55a1.47,1.47,0,0,1-1,.49H25.69C24.59,121.16,24.31,120.12,24.87,119.29Z" style="fill:#dca91e"></path><path d="M65.77,121.77a19,19,0,0,1-6.12-1v12.35a1.3,1.3,0,0,1-1.21,1.22H54a1.27,1.27,0,0,1-1.22-1.22V96.63a1.18,1.18,0,0,1,1.33-1.16,3.79,3.79,0,0,1,4,3.26,11,11,0,0,1,8.15-3.59c7,0,12.19,5.63,12.19,13.34C78.4,115.93,73.38,121.77,65.77,121.77Zm-6.12-7.72a10.08,10.08,0,0,0,5.3,1.44c4.19,0,6.34-3.42,6.34-7s-2-7-6-7A5.85,5.85,0,0,0,59.65,105Z" style="fill:#dca91e"></path><path d="M89.87,105.07a18.78,18.78,0,0,1,4.9.71c.11-3.25-2.09-4.79-4.79-4.79a21.39,21.39,0,0,0-5.9.93c-.83.28-1.32-.33-1.43-1.1L82.09,98a1.17,1.17,0,0,1,.83-1.54,24.83,24.83,0,0,1,7.44-1.27c7.39,0,10.86,4.14,10.86,11.08v14a1.18,1.18,0,0,1-1.32,1.15,3.73,3.73,0,0,1-3.8-2.59,11.33,11.33,0,0,1-7.78,3c-5.07,0-8.6-3.25-8.6-8.71C79.72,108.54,83.42,105.07,89.87,105.07ZM90,116.64a5.47,5.47,0,0,0,4.58-2.7v-3.75a10.19,10.19,0,0,0-3.75-.77c-2.92,0-4.52,1.38-4.52,3.64A3.36,3.36,0,0,0,90,116.64Z" style="fill:#dca91e"></path><path d="M105.58,96.63a1.18,1.18,0,0,1,1.32-1.16,3.79,3.79,0,0,1,4,3.31,10.52,10.52,0,0,1,8.22-3.64c8.1,0,10.2,5.46,10.2,11.64V120a1.26,1.26,0,0,1-1.22,1.21h-4.46A1.22,1.22,0,0,1,122.4,120V106.78c0-3.31-1.33-5.35-4.41-5.35a5.61,5.61,0,0,0-5.52,4V120c0,.94-.38,1.21-1.6,1.21h-4.08a1.26,1.26,0,0,1-1.21-1.21Z" style="fill:#dca91e"></path><path d="M144.67,95.14a18.93,18.93,0,0,1,6.12,1V83.79A1.31,1.31,0,0,1,152,82.57h4.47a1.26,1.26,0,0,1,1.21,1.22v36.44a1.18,1.18,0,0,1-1.32,1.15,3.73,3.73,0,0,1-4-3.19,10.94,10.94,0,0,1-8.16,3.58c-6.95,0-12.18-5.62-12.18-13.34C132.05,101,137.06,95.14,144.67,95.14Zm6.12,7.72a10.11,10.11,0,0,0-5.29-1.43c-4.19,0-6.34,3.42-6.34,7s2,7.06,6,7.06a5.85,5.85,0,0,0,5.62-3.53Z" style="fill:#dca91e"></path><path d="M172.14,132.58l5.07-12.24-8.6-23a1.13,1.13,0,0,1,1.1-1.66H175a1,1,0,0,1,1.05.72l4.69,15.71h.11l5.79-15.71c.27-.72.82-.72,1.59-.72h4.41a1.14,1.14,0,0,1,1.11,1.66l-14.83,36.16a1.3,1.3,0,0,1-1.11.78h-4.57A1.15,1.15,0,0,1,172.14,132.58Z" style="fill:#ffc222"></path><path d="M208,95.14a13.32,13.32,0,1,1-13,13.23A13.24,13.24,0,0,1,208,95.14Zm0,20.35a6.91,6.91,0,0,0,6.67-7.12,6.65,6.65,0,1,0-13.29,0A6.86,6.86,0,0,0,208,115.49Z" style="fill:#ffc222"></path><path d="M225.17,96.91a1.2,1.2,0,0,1,1.22-1.22h4.46a1.19,1.19,0,0,1,1.22,1.22v13.5c0,3.37,1.15,5.08,4.3,5.08,2.81,0,4.13-2.54,4.52-4.75V96.91c0-1,.33-1.22,1.38-1.22h4.3a1.19,1.19,0,0,1,1.21,1.22v23.32a1.18,1.18,0,0,1-1.32,1.15,3.73,3.73,0,0,1-4-3.14,11,11,0,0,1-7.72,3.53c-7.89,0-9.6-4.91-9.6-11.36Z" style="fill:#ffc222"></path><path d="M253.73,96.63a1.19,1.19,0,0,1,1.33-1.16,3.89,3.89,0,0,1,4,3.48,8.89,8.89,0,0,1,7.11-3.81c3,0,5.52.83,4.8,2.48l-1.65,3.75a1.07,1.07,0,0,1-1.49.55,5.18,5.18,0,0,0-2.37-.49,5.53,5.53,0,0,0-4.85,2.64V120c0,.94-.61,1.21-1.44,1.21H255a1.26,1.26,0,0,1-1.22-1.21Z" style="fill:#ffc222"></path><path d="M280.92,96.63a1.18,1.18,0,0,1,1.33-1.16,3.89,3.89,0,0,1,4,3.48,8.89,8.89,0,0,1,7.11-3.81c3,0,5.51.83,4.8,2.48l-1.66,3.75a1.05,1.05,0,0,1-1.48.55,5.18,5.18,0,0,0-2.37-.49,5.55,5.55,0,0,0-4.86,2.64V120c0,.94-.6,1.21-1.43,1.21h-4.24a1.26,1.26,0,0,1-1.22-1.21Z" style="fill:#ffc222"></path><path d="M311.8,95.14a11.42,11.42,0,0,1,11.68,11.8,15.07,15.07,0,0,1-.11,1.65,1.28,1.28,0,0,1-1.21,1.16H305.84a6.13,6.13,0,0,0,6.34,5.9,8.48,8.48,0,0,0,5.46-1.87c.61-.5,1.27-.55,1.65,0l2.15,2.86a1.07,1.07,0,0,1-.11,1.66,14.37,14.37,0,0,1-9.48,3.47c-7.61,0-12.9-6.06-12.9-13.34S304.24,95.14,311.8,95.14Zm4.74,10.09a4.66,4.66,0,0,0-4.91-4.41,5.06,5.06,0,0,0-5.4,4.41Z" style="fill:#ffc222"></path><path d="M336,105.07a18.78,18.78,0,0,1,4.9.71c.11-3.25-2.09-4.79-4.79-4.79a21.32,21.32,0,0,0-5.9.93c-.83.28-1.33-.33-1.44-1.1L328.17,98a1.17,1.17,0,0,1,.83-1.54,24.83,24.83,0,0,1,7.44-1.27c7.39,0,10.86,4.14,10.86,11.08v14a1.18,1.18,0,0,1-1.32,1.15,3.75,3.75,0,0,1-3.81-2.59,11.28,11.28,0,0,1-7.77,3c-5.07,0-8.6-3.25-8.6-8.71C325.8,108.54,329.5,105.07,336,105.07Zm.16,11.57a5.47,5.47,0,0,0,4.58-2.7v-3.75a10.19,10.19,0,0,0-3.75-.77c-2.92,0-4.52,1.38-4.52,3.64A3.36,3.36,0,0,0,336.11,116.64Z" style="fill:#ffc222"></path><path d="M365,95.14a12.6,12.6,0,0,1,9.48,4.3c.56.55.28,1.27-.27,1.82l-2.32,2.54c-.55.6-1.16.33-1.65-.17a6.92,6.92,0,0,0-5.07-2.2,6.68,6.68,0,0,0-6.73,7c0,4,2.7,7.06,6.67,7.06a6.74,6.74,0,0,0,5.4-2.82,1.19,1.19,0,0,1,1.6-.16l2.48,2.09c.61.56.89,1.16.45,1.82A11.4,11.4,0,0,1,365,121.77,13.32,13.32,0,1,1,365,95.14Z" style="fill:#ffc222"></path><path d="M379.06,83.79a1.31,1.31,0,0,1,1.21-1.22h4.47A1.26,1.26,0,0,1,386,83.79v13.5a9.9,9.9,0,0,1,6.51-2.15c8.1,0,10.31,5.63,10.31,12V120a1.26,1.26,0,0,1-1.22,1.21h-4.46a1.22,1.22,0,0,1-1.21-1.21V107.11c0-3.53-1.6-5.68-4.64-5.68s-4.63,1.87-5.29,4.46V120c0,.72-.33,1.21-1.32,1.21h-4.36a1.26,1.26,0,0,1-1.21-1.21Z" style="fill:#ffc222"></path></svg> 