<?xml version="1.0" encoding="UTF-8"?> <svg xmlns="http://www.w3.org/2000/svg" viewBox="0 0 416.98 132.37" width="416px" height="132px"><path d="M0,1.05A1.09,1.09,0,0,1,1.05,0H6.17a1.08,1.08,0,0,1,1,1.05V37.54a1.08,1.08,0,0,1-1,1.05H1.05a1.09,1.09,0,0,1-1-1.05Z" style="fill:#003b5d"></path><path d="M13.51,14.06a1.18,1.18,0,0,1,1.32-1.16,3.82,3.82,0,0,1,4,3.2,9.6,9.6,0,0,1,7.66-3.53c3.7,0,5.52,1.32,7.61,3.86a10.87,10.87,0,0,1,8.22-3.86c8.16,0,10.09,5.18,10.09,11.8v13a1.24,1.24,0,0,1-1.27,1.21H46.7a1.23,1.23,0,0,1-1.22-1.21V24.2c0-3.31-1.21-5.35-4.41-5.35a4.87,4.87,0,0,0-4.74,2.65s.11,1.27.11,2.43V37.38a1.26,1.26,0,0,1-1.21,1.21H30.71a1.18,1.18,0,0,1-1.21-1.21V24.2c0-3.31-.94-5.35-4.19-5.35s-4.3,2.21-4.91,4V37.38a1.26,1.26,0,0,1-1.21,1.21H14.72a1.26,1.26,0,0,1-1.21-1.21Z" style="fill:#003b5d"></path><path d="M66.16,22.49a18.66,18.66,0,0,1,4.91.72c.11-3.25-2.1-4.8-4.8-4.8a21.36,21.36,0,0,0-5.9.94c-.83.28-1.32-.33-1.43-1.1l-.55-2.87a1.15,1.15,0,0,1,.82-1.54,24.92,24.92,0,0,1,7.45-1.27c7.38,0,10.86,4.13,10.86,11.08v14a1.18,1.18,0,0,1-1.33,1.16,3.74,3.74,0,0,1-3.8-2.59,11.28,11.28,0,0,1-7.77,3c-5.08,0-8.6-3.26-8.6-8.71C56,26,59.71,22.49,66.16,22.49Zm.17,11.58a5.45,5.45,0,0,0,4.57-2.7V27.62a10.19,10.19,0,0,0-3.75-.77c-2.92,0-4.52,1.38-4.52,3.64A3.36,3.36,0,0,0,66.33,34.07Z" style="fill:#003b5d"></path><path d="M94.39,51.22a16.81,16.81,0,0,1-9.15-2.87A1.18,1.18,0,0,1,85,46.92l1.66-3.59A1,1,0,0,1,88.1,43a12.8,12.8,0,0,0,6.07,1.93c3.91,0,6-1.32,6-6.06v-.72a19,19,0,0,1-6.12,1.05c-7.61,0-12.63-5.85-12.63-13.29,0-7.72,5.24-13.34,12.19-13.34a11,11,0,0,1,8.1,3.58,3.84,3.84,0,0,1,4-3.25,1.18,1.18,0,0,1,1.32,1.16V38.87C107.07,47.08,101.33,51.22,94.39,51.22Zm5.79-28.84a5.85,5.85,0,0,0-5.63-3.53c-4,0-6,3.48-6,7.06s2.15,7,6.34,7a10.13,10.13,0,0,0,5.3-1.43Z" style="fill:#003b5d"></path><path d="M111.76,4.36A4.29,4.29,0,0,1,116.11,0a4.34,4.34,0,0,1,4.41,4.36,4.39,4.39,0,0,1-4.41,4.41A4.34,4.34,0,0,1,111.76,4.36Zm1,10A1.23,1.23,0,0,1,114,13.12h4.47a1.23,1.23,0,0,1,1.21,1.21V37.38a1.26,1.26,0,0,1-1.21,1.21H114a1.26,1.26,0,0,1-1.21-1.21Z" style="fill:#003b5d"></path><path d="M125.32,14.06a1.18,1.18,0,0,1,1.32-1.16,3.78,3.78,0,0,1,4,3.31,10.47,10.47,0,0,1,8.22-3.64C146.93,12.57,149,18,149,24.2V37.38a1.26,1.26,0,0,1-1.21,1.21h-4.46a1.22,1.22,0,0,1-1.22-1.21V24.2c0-3.31-1.32-5.35-4.41-5.35a5.62,5.62,0,0,0-5.51,4V37.38c0,.94-.39,1.21-1.6,1.21h-4.08a1.26,1.26,0,0,1-1.21-1.21Z" style="fill:#003b5d"></path><path d="M165.73,12.57a11.42,11.42,0,0,1,11.69,11.8c0,.38-.06,1.27-.11,1.65a1.3,1.3,0,0,1-1.21,1.16H159.78a6.11,6.11,0,0,0,6.34,5.9,8.45,8.45,0,0,0,5.46-1.88c.6-.49,1.26-.55,1.65,0l2.15,2.87a1.07,1.07,0,0,1-.11,1.65,14.37,14.37,0,0,1-9.48,3.48c-7.61,0-12.9-6.07-12.9-13.34S158.18,12.57,165.73,12.57Zm4.74,10.09a4.65,4.65,0,0,0-4.9-4.41c-3.09,0-5.08,1.87-5.41,4.41Z" style="fill:#003b5d"></path><path d="M184,24.22a.57.57,0,0,1-.54-.58V21.88a.54.54,0,0,1,.54-.58h1.17V18a.61.61,0,0,1,.58-.57h2.13a.54.54,0,0,1,.54.57v3.33h2.81a.56.56,0,0,1,.57.57v1.77a.59.59,0,0,1-.58.57h-2.8l0,4.84c0,1.17.52,1.64,1.27,1.64a4.86,4.86,0,0,0,1.53-.28.47.47,0,0,1,.68.31l.33,1.56a.57.57,0,0,1-.34.7,6.2,6.2,0,0,1-2.76.62c-2.44,0-4-1.6-4-4.33l0-5.07Z" style="fill:#006697"></path><path d="M193.87,15.72a.61.61,0,0,1,.57-.57h2.1a.59.59,0,0,1,.58.57l0,6.37a4.67,4.67,0,0,1,3.07-1c3.82,0,4.85,2.67,4.84,5.69l0,6a.59.59,0,0,1-.57.57h-2.11a.58.58,0,0,1-.57-.57l0-6.06c0-1.66-.74-2.68-2.17-2.68a2.47,2.47,0,0,0-2.51,2.1l0,6.63c0,.33-.15.57-.62.57h-2.06a.6.6,0,0,1-.57-.57Z" style="fill:#006697"></path><path d="M212.88,21.13a5.39,5.39,0,0,1,5.5,5.58c0,.19,0,.6-.06.78a.61.61,0,0,1-.57.55l-7.7,0a2.89,2.89,0,0,0,3,2.79,4,4,0,0,0,2.58-.88c.29-.23.6-.26.78,0l1,1.36a.5.5,0,0,1-.06.78,6.74,6.74,0,0,1-4.47,1.62,6.08,6.08,0,0,1-6.07-6.31A6.08,6.08,0,0,1,212.88,21.13Zm2.22,4.77a2.2,2.2,0,0,0-2.31-2.09,2.39,2.39,0,0,0-2.55,2.07Z" style="fill:#006697"></path><path d="M7.84,81.87a1.31,1.31,0,0,1,1.22-1.22h4.46a1.26,1.26,0,0,1,1.21,1.22V94.33A18,18,0,0,1,21,93.22c7.56,0,12.35,5.85,12.35,13.29,0,7.28-5,13.34-12,13.34a11.46,11.46,0,0,1-8.22-3.47,3.77,3.77,0,0,1-4,3.08,1.18,1.18,0,0,1-1.33-1.15ZM14.73,110a5.85,5.85,0,0,0,5.63,3.53c4,0,6-3.48,6-7.06s-2.15-7-6.34-7a10.13,10.13,0,0,0-5.3,1.43Z" style="fill:#dca91e"></path><path d="M47.87,93.22a13.32,13.32,0,1,1-13,13.24A13.24,13.24,0,0,1,47.87,93.22Zm0,20.35a6.91,6.91,0,0,0,6.67-7.11,6.66,6.66,0,1,0-6.67,7.11Z" style="fill:#dca91e"></path><path d="M75.38,93.22a13.32,13.32,0,1,1-13,13.24A13.25,13.25,0,0,1,75.38,93.22Zm0,20.35a6.91,6.91,0,0,0,6.67-7.11,6.65,6.65,0,1,0-13.29,0A6.87,6.87,0,0,0,75.38,113.57Z" style="fill:#dca91e"></path><path d="M90.65,117.54a1.14,1.14,0,0,1-.33-1.38L92,112.85a1,1,0,0,1,1.48-.44,10.3,10.3,0,0,0,5.63,1.65c1.93,0,2.81-.71,2.81-1.82s-1.43-2.2-4.8-3.53c-4.9-1.87-7.11-4.18-7.11-8s2.92-7.45,9.15-7.45a13.81,13.81,0,0,1,7.56,1.88,1.42,1.42,0,0,1,.55,1.76l-1.44,2.92a1.26,1.26,0,0,1-1.6.5A12.16,12.16,0,0,0,99.14,99c-1.71,0-2.42.83-2.42,1.66,0,1.15,1.27,1.76,3.64,2.75,4.9,2,8.43,3.75,8.43,8.82,0,4-3.42,7.61-9.81,7.61A14.3,14.3,0,0,1,90.65,117.54Z" style="fill:#dca91e"></path><path d="M110.94,100a1.22,1.22,0,0,1-1.16-1.21V95a1.14,1.14,0,0,1,1.16-1.21h2.48V86.72a1.26,1.26,0,0,1,1.22-1.21h4.52a1.17,1.17,0,0,1,1.15,1.21v7.06h6A1.18,1.18,0,0,1,127.48,95v3.75a1.26,1.26,0,0,1-1.21,1.21h-6V110.2c0,2.48,1.11,3.48,2.71,3.48a10.22,10.22,0,0,0,3.25-.61,1,1,0,0,1,1.43.66l.72,3.31a1.25,1.25,0,0,1-.72,1.49,13.41,13.41,0,0,1-5.84,1.32c-5.18,0-8.44-3.36-8.44-9.15V100Z" style="fill:#dca91e"></path><path d="M147.43,130.66l5.07-12.24-8.6-23A1.13,1.13,0,0,1,145,93.77h5.29a1,1,0,0,1,1,.72L156,110.2h.11l5.79-15.71c.28-.72.83-.72,1.6-.72h4.41a1.14,1.14,0,0,1,1.1,1.66l-14.83,36.16a1.27,1.27,0,0,1-1.1.78h-4.57A1.15,1.15,0,0,1,147.43,130.66Z" style="fill:#ffc222"></path><path d="M183.32,93.22a13.32,13.32,0,1,1-13,13.23A13.24,13.24,0,0,1,183.32,93.22Zm0,20.35a6.9,6.9,0,0,0,6.67-7.12,6.65,6.65,0,1,0-13.28,0A6.86,6.86,0,0,0,183.32,113.57Z" style="fill:#ffc222"></path><path d="M200.47,95a1.19,1.19,0,0,1,1.21-1.22h4.47A1.19,1.19,0,0,1,207.36,95v13.5c0,3.37,1.16,5.08,4.3,5.08,2.81,0,4.14-2.54,4.52-4.75V95c0-1,.33-1.22,1.38-1.22h4.3A1.19,1.19,0,0,1,223.07,95v23.32a1.18,1.18,0,0,1-1.32,1.15,3.74,3.74,0,0,1-4-3.14,11,11,0,0,1-7.72,3.53c-7.88,0-9.59-4.91-9.59-11.36Z" style="fill:#ffc222"></path><path d="M229,94.71a1.18,1.18,0,0,1,1.32-1.16,3.9,3.9,0,0,1,4,3.48,8.89,8.89,0,0,1,7.11-3.81c3,0,5.51.83,4.8,2.48l-1.66,3.75a1.06,1.06,0,0,1-1.49.55,5.12,5.12,0,0,0-2.37-.49,5.54,5.54,0,0,0-4.85,2.64V118c0,.94-.6,1.21-1.43,1.21h-4.25A1.26,1.26,0,0,1,229,118Z" style="fill:#ffc222"></path><path d="M267.42,131.87a16.81,16.81,0,0,1-9.15-2.87,1.18,1.18,0,0,1-.28-1.43l1.66-3.58a1,1,0,0,1,1.48-.34,12.69,12.69,0,0,0,6.07,1.93c3.91,0,6-1.32,6-6.06v-.72a19,19,0,0,1-6.12,1c-7.61,0-12.63-5.84-12.63-13.29,0-7.71,5.24-13.34,12.19-13.34a11,11,0,0,1,8.1,3.59,3.84,3.84,0,0,1,4-3.26,1.18,1.18,0,0,1,1.32,1.16v24.81C280.1,127.73,274.37,131.87,267.42,131.87ZM273.21,103a5.84,5.84,0,0,0-5.63-3.53c-4,0-6,3.47-6,7s2.15,7,6.34,7a10.06,10.06,0,0,0,5.29-1.44Z" style="fill:#ffc222"></path><path d="M285,94.71a1.18,1.18,0,0,1,1.33-1.16,3.89,3.89,0,0,1,4,3.48,8.89,8.89,0,0,1,7.11-3.81c3,0,5.51.83,4.8,2.48l-1.66,3.75a1.05,1.05,0,0,1-1.48.55,5.2,5.2,0,0,0-2.38-.49,5.54,5.54,0,0,0-4.85,2.64V118c0,.94-.6,1.21-1.43,1.21h-4.24A1.26,1.26,0,0,1,285,118Z" style="fill:#ffc222"></path><path d="M314.89,93.22a13.32,13.32,0,1,1-13,13.23A13.24,13.24,0,0,1,314.89,93.22Zm0,20.35a6.91,6.91,0,0,0,6.67-7.12,6.65,6.65,0,1,0-13.29,0A6.87,6.87,0,0,0,314.89,113.57Z" style="fill:#ffc222"></path><path d="M328.56,95.21c-.38-.77.17-1.44,1.05-1.44h4.3a1.23,1.23,0,0,1,1.1.78l3.86,12.12h.06l6.67-12.9a1,1,0,0,1,1-.55h.5a1,1,0,0,1,1,.55l6.62,12.9h.06l3.8-12.12c.22-.72.77-.78,1.43-.78h3.86a1.08,1.08,0,0,1,1.16,1.44l-7.83,23.92a1.14,1.14,0,0,1-1.16.72h-.22a1.13,1.13,0,0,1-1-.61l-8-15.32h-.05l-8,15.32a1.11,1.11,0,0,1-1,.61h-.33a1.06,1.06,0,0,1-1.1-.72Z" style="fill:#ffc222"></path><path d="M367,100a1.22,1.22,0,0,1-1.16-1.21V95A1.15,1.15,0,0,1,367,93.77h2.48v-7a1.27,1.27,0,0,1,1.22-1.22h4.52a1.18,1.18,0,0,1,1.15,1.22v7h6A1.19,1.19,0,0,1,383.53,95v3.75a1.26,1.26,0,0,1-1.21,1.21h-6V110.2c0,2.48,1.11,3.48,2.71,3.48a10.22,10.22,0,0,0,3.25-.61,1,1,0,0,1,1.43.66l.72,3.31a1.25,1.25,0,0,1-.72,1.49,13.41,13.41,0,0,1-5.84,1.32c-5.18,0-8.44-3.36-8.44-9.15V100Z" style="fill:#ffc222"></path><path d="M387.06,81.87a1.31,1.31,0,0,1,1.21-1.22h4.47A1.26,1.26,0,0,1,394,81.87v13.5a9.92,9.92,0,0,1,6.51-2.15c8.1,0,10.31,5.63,10.31,12V118a1.26,1.26,0,0,1-1.22,1.21h-4.46a1.22,1.22,0,0,1-1.21-1.21V105.19c0-3.53-1.6-5.68-4.64-5.68s-4.63,1.87-5.29,4.46V118c0,.72-.33,1.21-1.32,1.21h-4.36a1.26,1.26,0,0,1-1.21-1.21Z" style="fill:#ffc222"></path><path d="M384,60a8.74,8.74,0,0,1,2.31.34A2.06,2.06,0,0,0,384,58.07a10,10,0,0,0-2.78.44c-.39.13-.62-.15-.68-.52l-.26-1.35a.55.55,0,0,1,.39-.73,11.89,11.89,0,0,1,3.51-.6c3.49,0,5.13,1.95,5.13,5.23v6.6a.56.56,0,0,1-.63.55,1.76,1.76,0,0,1-1.79-1.22,5.34,5.34,0,0,1-3.67,1.4,3.82,3.82,0,0,1-4.05-4.11C379.18,61.63,380.92,60,384,60Zm.08,5.47a2.61,2.61,0,0,0,2.16-1.28V62.41a4.87,4.87,0,0,0-1.77-.36c-1.38,0-2.13.65-2.13,1.71A1.59,1.59,0,0,0,384,65.46Z" style="fill:#0b1e40"></path><path d="M391.89,56a.56.56,0,0,1,.62-.55A1.79,1.79,0,0,1,394.39,57a4.92,4.92,0,0,1,3.87-1.72c3.82,0,4.81,2.58,4.81,5.49V67a.59.59,0,0,1-.57.58h-2.11a.58.58,0,0,1-.57-.58V60.8c0-1.56-.62-2.52-2.08-2.52a2.65,2.65,0,0,0-2.6,1.87V67c0,.45-.18.58-.75.58h-1.93a.6.6,0,0,1-.57-.58Z" style="fill:#0b1e40"></path><path d="M410.84,55.31a8.82,8.82,0,0,1,2.89.5V50a.61.61,0,0,1,.57-.57h2.11A.59.59,0,0,1,417,50V67.14a.56.56,0,0,1-.62.55,1.78,1.78,0,0,1-1.88-1.51,5.11,5.11,0,0,1-3.84,1.69c-3.28,0-5.75-2.65-5.75-6.29S407.26,55.31,410.84,55.31ZM413.73,59a4.75,4.75,0,0,0-2.5-.68,3,3,0,0,0-3,3.3c0,1.69,1,3.33,2.84,3.33a2.76,2.76,0,0,0,2.65-1.66Z" style="fill:#0b1e40"></path><path d="M145,76.1a19,19,0,0,1-6.12-1V87.41a1.3,1.3,0,0,1-1.21,1.21h-4.46A1.26,1.26,0,0,1,132,87.41V51a1.18,1.18,0,0,1,1.33-1.15,3.76,3.76,0,0,1,4,3.25,11,11,0,0,1,8.16-3.58c6.95,0,12.19,5.62,12.19,13.34C157.63,70.26,152.61,76.1,145,76.1Zm-6.12-7.71a10.13,10.13,0,0,0,5.3,1.43c4.19,0,6.34-3.42,6.34-7s-2-7.06-6-7.06a5.85,5.85,0,0,0-5.63,3.53Z" style="fill:#006697"></path><path d="M171.91,49.48a13.31,13.31,0,1,1-13,13.23A13.23,13.23,0,0,1,171.91,49.48Zm0,20.34a6.91,6.91,0,0,0,6.67-7.11,6.66,6.66,0,1,0-6.67,7.11Z" style="fill:#006697"></path><path d="M186.91,73.79a1.12,1.12,0,0,1-.34-1.38l1.66-3.31a1,1,0,0,1,1.49-.44,10.23,10.23,0,0,0,5.62,1.65c1.93,0,2.81-.71,2.81-1.81s-1.43-2.21-4.79-3.53c-4.91-1.88-7.12-4.19-7.12-8s2.93-7.44,9.16-7.44A13.9,13.9,0,0,1,203,51.35a1.42,1.42,0,0,1,.55,1.76L202.07,56a1.28,1.28,0,0,1-1.6.49,12.24,12.24,0,0,0-5.07-1.27c-1.71,0-2.43.83-2.43,1.66,0,1.16,1.27,1.76,3.64,2.75,4.9,2,8.43,3.75,8.43,8.83,0,4-3.42,7.6-9.81,7.6A14.24,14.24,0,0,1,186.91,73.79Z" style="fill:#006697"></path><path d="M206.92,73.79a1.12,1.12,0,0,1-.33-1.38l1.65-3.31a1,1,0,0,1,1.49-.44,10.29,10.29,0,0,0,5.62,1.65c1.93,0,2.82-.71,2.82-1.81s-1.44-2.21-4.8-3.53c-4.91-1.88-7.11-4.19-7.11-8s2.92-7.44,9.15-7.44A13.88,13.88,0,0,1,223,51.35a1.42,1.42,0,0,1,.55,1.76L222.08,56a1.28,1.28,0,0,1-1.6.49,12.2,12.2,0,0,0-5.07-1.27c-1.71,0-2.43.83-2.43,1.66,0,1.16,1.27,1.76,3.64,2.75,4.91,2,8.44,3.75,8.44,8.83,0,4-3.42,7.6-9.82,7.6A14.26,14.26,0,0,1,206.92,73.79Z" style="fill:#006697"></path><path d="M226.71,41.26a4.39,4.39,0,0,1,8.77,0,4.39,4.39,0,1,1-8.77,0Zm1,10A1.22,1.22,0,0,1,228.92,50h4.46a1.22,1.22,0,0,1,1.22,1.21v23a1.27,1.27,0,0,1-1.22,1.22h-4.46a1.27,1.27,0,0,1-1.22-1.22Z" style="fill:#006697"></path><path d="M238.9,38.12a1.29,1.29,0,0,1,1.21-1.21h4.46a1.26,1.26,0,0,1,1.22,1.21V50.58a18,18,0,0,1,6.23-1.1c7.55,0,12.35,5.84,12.35,13.28,0,7.28-5,13.34-12,13.34a11.45,11.45,0,0,1-8.21-3.47,3.79,3.79,0,0,1-4,3.09,1.18,1.18,0,0,1-1.32-1.16Zm6.89,28.17a5.84,5.84,0,0,0,5.62,3.53c4,0,6-3.47,6-7.06s-2.15-7-6.34-7a10.07,10.07,0,0,0-5.29,1.43Z" style="fill:#006697"></path><path d="M266.19,41.26a4.29,4.29,0,0,1,4.35-4.35A4.34,4.34,0,0,1,275,41.26a4.39,4.39,0,0,1-4.41,4.41A4.33,4.33,0,0,1,266.19,41.26Zm1,10A1.22,1.22,0,0,1,268.39,50h4.47a1.22,1.22,0,0,1,1.21,1.21v23a1.26,1.26,0,0,1-1.21,1.22h-4.47a1.26,1.26,0,0,1-1.21-1.22Z" style="fill:#006697"></path><path d="M278.43,38.12a1.29,1.29,0,0,1,1.21-1.21h4.46a1.3,1.3,0,0,1,1.22,1.21V74.28a1.27,1.27,0,0,1-1.22,1.22h-4.46a1.26,1.26,0,0,1-1.21-1.22Z" style="fill:#006697"></path><path d="M288.68,41.26a4.39,4.39,0,0,1,8.77,0,4.39,4.39,0,1,1-8.77,0Zm1,10A1.22,1.22,0,0,1,290.89,50h4.46a1.21,1.21,0,0,1,1.21,1.21v23a1.26,1.26,0,0,1-1.21,1.22h-4.46a1.27,1.27,0,0,1-1.22-1.22Z" style="fill:#006697"></path><path d="M300.09,56.2A1.21,1.21,0,0,1,298.94,55V51.24A1.14,1.14,0,0,1,300.09,50h2.48V43a1.26,1.26,0,0,1,1.22-1.21h4.52A1.18,1.18,0,0,1,309.47,43V50h5.95a1.18,1.18,0,0,1,1.21,1.21V55a1.26,1.26,0,0,1-1.21,1.21h-5.95V66.46c0,2.48,1.1,3.47,2.7,3.47a10.22,10.22,0,0,0,3.25-.61,1,1,0,0,1,1.43.66l.72,3.31a1.25,1.25,0,0,1-.72,1.49A13.23,13.23,0,0,1,311,76.1c-5.18,0-8.44-3.36-8.44-9.15V56.2Z" style="fill:#006697"></path><path d="M318.62,41.26A4.29,4.29,0,0,1,323,36.91a4.34,4.34,0,0,1,4.41,4.35A4.38,4.38,0,0,1,323,45.67,4.33,4.33,0,0,1,318.62,41.26Zm1,10A1.22,1.22,0,0,1,320.82,50h4.47a1.21,1.21,0,0,1,1.21,1.21v23a1.26,1.26,0,0,1-1.21,1.22h-4.47a1.26,1.26,0,0,1-1.21-1.22Z" style="fill:#006697"></path><path d="M342.1,49.48a11.41,11.41,0,0,1,11.69,11.79,15.42,15.42,0,0,1-.11,1.66,1.28,1.28,0,0,1-1.21,1.15H336.15a6.12,6.12,0,0,0,6.34,5.9A8.43,8.43,0,0,0,348,68.11c.6-.5,1.27-.55,1.65,0L351.75,71a1.07,1.07,0,0,1-.11,1.65,14.39,14.39,0,0,1-9.48,3.47c-7.61,0-12.9-6.06-12.9-13.34S334.55,49.48,342.1,49.48Zm4.75,10.08a4.66,4.66,0,0,0-4.91-4.41,5.06,5.06,0,0,0-5.4,4.41Z" style="fill:#006697"></path><path d="M355.45,73.79a1.12,1.12,0,0,1-.33-1.38l1.65-3.31a1,1,0,0,1,1.49-.44,10.29,10.29,0,0,0,5.62,1.65c1.93,0,2.81-.71,2.81-1.81s-1.43-2.21-4.79-3.53c-4.91-1.88-7.11-4.19-7.11-8s2.92-7.44,9.15-7.44a13.88,13.88,0,0,1,7.55,1.87,1.42,1.42,0,0,1,.55,1.76L370.61,56a1.28,1.28,0,0,1-1.6.49,12.2,12.2,0,0,0-5.07-1.27c-1.71,0-2.43.83-2.43,1.66,0,1.16,1.27,1.76,3.64,2.75,4.91,2,8.43,3.75,8.43,8.83,0,4-3.41,7.6-9.81,7.6A14.26,14.26,0,0,1,355.45,73.79Z" style="fill:#006697"></path></svg> 