<?xml version="1.0" encoding="UTF-8"?> <svg xmlns="http://www.w3.org/2000/svg" viewBox="0 0 412.25 122.35" width="412px" height="122px"><path d="M299.42,57.91a8.74,8.74,0,0,1,2.31.34A2.06,2.06,0,0,0,299.47,56a9.9,9.9,0,0,0-2.78.45c-.39.13-.63-.16-.68-.52l-.26-1.36a.54.54,0,0,1,.39-.72,11.48,11.48,0,0,1,3.51-.6c3.49,0,5.13,2,5.13,5.22v6.61a.56.56,0,0,1-.63.54,1.76,1.76,0,0,1-1.79-1.22,5.35,5.35,0,0,1-3.67,1.41,3.83,3.83,0,0,1-4.06-4.11C294.63,59.55,296.38,57.91,299.42,57.91Zm.08,5.46a2.58,2.58,0,0,0,2.16-1.28V60.33a4.76,4.76,0,0,0-1.77-.37c-1.38,0-2.14.65-2.14,1.72A1.59,1.59,0,0,0,299.5,63.37Z" style="fill:#0b1e40"></path><path d="M307.35,53.93a.56.56,0,0,1,.62-.55,1.78,1.78,0,0,1,1.87,1.56,5,5,0,0,1,3.88-1.71c3.82,0,4.81,2.57,4.81,5.48v6.22a.6.6,0,0,1-.57.57h-2.11a.58.58,0,0,1-.57-.57V58.71c0-1.56-.63-2.52-2.08-2.52a2.64,2.64,0,0,0-2.6,1.87v6.87c0,.44-.18.57-.76.57h-1.92a.59.59,0,0,1-.57-.57Z" style="fill:#0b1e40"></path><path d="M326.3,53.23a8.92,8.92,0,0,1,2.89.49V47.87a.61.61,0,0,1,.57-.57h2.11a.59.59,0,0,1,.57.57V65.06a.56.56,0,0,1-.63.54,1.77,1.77,0,0,1-1.87-1.5,5.17,5.17,0,0,1-3.85,1.69c-3.27,0-5.74-2.66-5.74-6.3S322.71,53.23,326.3,53.23Zm2.89,3.64a4.75,4.75,0,0,0-2.5-.68,3,3,0,0,0-3,3.3c0,1.69,1,3.33,2.84,3.33a2.76,2.76,0,0,0,2.65-1.66Z" style="fill:#0b1e40"></path><path d="M92.48,53.29a1.18,1.18,0,0,1,1.32-1.16,3.79,3.79,0,0,1,4,3.31A10.51,10.51,0,0,1,106,51.8c8.1,0,10.19,5.46,10.19,11.63V76.61A1.26,1.26,0,0,1,115,77.82h-4.46a1.22,1.22,0,0,1-1.22-1.21V63.43c0-3.3-1.32-5.34-4.41-5.34a5.61,5.61,0,0,0-5.51,4V76.61c0,.94-.39,1.21-1.6,1.21H93.69a1.26,1.26,0,0,1-1.21-1.21Z" style="fill:#006697"></path><path d="M120.21,53.57a1.19,1.19,0,0,1,1.21-1.22h4.47a1.19,1.19,0,0,1,1.21,1.22v13.5c0,3.37,1.16,5.07,4.3,5.07,2.81,0,4.14-2.53,4.52-4.74V53.57c0-1,.33-1.22,1.38-1.22h4.3a1.19,1.19,0,0,1,1.21,1.22V76.89A1.18,1.18,0,0,1,141.49,78a3.74,3.74,0,0,1-4-3.14,11,11,0,0,1-7.72,3.53c-7.88,0-9.59-4.91-9.59-11.36Z" style="fill:#006697"></path><path d="M147.39,53.29a1.18,1.18,0,0,1,1.32-1.16,3.81,3.81,0,0,1,4,3.2,9.64,9.64,0,0,1,7.67-3.53c3.69,0,5.51,1.32,7.61,3.86a10.84,10.84,0,0,1,8.21-3.86c8.16,0,10.09,5.18,10.09,11.8v13A1.23,1.23,0,0,1,185,77.82h-4.41a1.22,1.22,0,0,1-1.21-1.21V63.43c0-3.3-1.22-5.34-4.41-5.34-3.7,0-4.74,2.64-4.74,2.64s.11,1.27.11,2.43V76.61a1.26,1.26,0,0,1-1.22,1.21h-4.52a1.19,1.19,0,0,1-1.21-1.21V63.43c0-3.3-.94-5.34-4.19-5.34s-4.3,2.2-4.91,4V76.61a1.26,1.26,0,0,1-1.21,1.21H148.6a1.26,1.26,0,0,1-1.21-1.21Z" style="fill:#006697"></path><path d="M190.56,40.45a1.31,1.31,0,0,1,1.21-1.22h4.47a1.26,1.26,0,0,1,1.21,1.22V52.9a18.24,18.24,0,0,1,6.23-1.1c7.56,0,12.35,5.85,12.35,13.29,0,7.28-5,13.34-12,13.34A11.5,11.5,0,0,1,195.85,75a3.77,3.77,0,0,1-4,3.08,1.18,1.18,0,0,1-1.32-1.15Zm6.89,28.17a5.85,5.85,0,0,0,5.63,3.52c4,0,6-3.47,6-7s-2.15-7-6.34-7a10.13,10.13,0,0,0-5.3,1.43Z" style="fill:#006697"></path><path d="M230.42,51.8a11.42,11.42,0,0,1,11.69,11.8c0,.39-.06,1.27-.11,1.65a1.29,1.29,0,0,1-1.21,1.16H224.47a6.11,6.11,0,0,0,6.34,5.9,8.5,8.5,0,0,0,5.46-1.87c.6-.5,1.26-.56,1.65,0l2.15,2.86A1.08,1.08,0,0,1,240,75a14.42,14.42,0,0,1-9.48,3.47c-7.61,0-12.9-6.06-12.9-13.34S222.87,51.8,230.42,51.8Zm4.74,10.09a4.65,4.65,0,0,0-4.9-4.41,5.07,5.07,0,0,0-5.41,4.41Z" style="fill:#006697"></path><path d="M244.81,53.29a1.18,1.18,0,0,1,1.33-1.16,3.89,3.89,0,0,1,4,3.48,8.89,8.89,0,0,1,7.11-3.81c3,0,5.51.83,4.8,2.48L260.41,58a1.05,1.05,0,0,1-1.48.55,5.18,5.18,0,0,0-2.37-.49,5.56,5.56,0,0,0-4.86,2.64V76.61c0,.94-.6,1.21-1.43,1.21H246a1.26,1.26,0,0,1-1.22-1.21Z" style="fill:#006697"></path><path d="M272.49,50.64a.94.94,0,0,1-1.16-.77L271,47.12a1.13,1.13,0,0,1,.55-1.22L278.61,40a2.7,2.7,0,0,1,1.93-.72h2.87a1,1,0,0,1,1,1.05V76.72a1.05,1.05,0,0,1-1,1.1h-4.86a1.07,1.07,0,0,1-1.1-1.1V49.54Z" style="fill:#006697"></path><path d="M199,21.53c-.27-.55.12-1,.74-1h3.06a.88.88,0,0,1,.78.55l2.74,8.61h0l4.73-9.16a.68.68,0,0,1,.7-.39h.36a.72.72,0,0,1,.74.39l4.7,9.16h0l2.7-8.61c.16-.51.55-.55,1-.55h2.74c.63,0,1,.47.82,1l-5.55,17a.82.82,0,0,1-.83.51h-.15a.85.85,0,0,1-.75-.43l-5.67-10.88h0l-5.67,10.88a.82.82,0,0,1-.71.43h-.23a.75.75,0,0,1-.78-.51Z" style="fill:#006697"></path><path d="M225.91,14.29A3,3,0,0,1,229,11.2a3.11,3.11,0,1,1-3.09,3.09Zm.71,7.09a.87.87,0,0,1,.86-.87h3.17a.87.87,0,0,1,.86.87V37.73a.89.89,0,0,1-.86.86h-3.17a.89.89,0,0,1-.86-.86Z" style="fill:#006697"></path><path d="M234.21,24.9a.87.87,0,0,1-.83-.86V21.38a.83.83,0,0,1,.83-.87H236v-5a.89.89,0,0,1,.86-.86H240a.84.84,0,0,1,.83.86v5h4.22a.85.85,0,0,1,.86.87V24a.89.89,0,0,1-.86.86h-4.22v7.27c0,1.76.78,2.47,1.91,2.47a7.49,7.49,0,0,0,2.31-.43.7.7,0,0,1,1,.47l.51,2.35a.88.88,0,0,1-.51,1A9.5,9.5,0,0,1,242,39c-3.68,0-6-2.39-6-6.49V24.9Z" style="fill:#006697"></path><path d="M248.25,12.06a.92.92,0,0,1,.86-.86h3.17a.89.89,0,0,1,.86.86v9.59a7,7,0,0,1,4.62-1.53c5.75,0,7.32,4,7.32,8.53v9.08a.9.9,0,0,1-.87.86h-3.16a.88.88,0,0,1-.87-.86V28.61c0-2.5-1.13-4-3.28-4a3.73,3.73,0,0,0-3.76,3.17v10c0,.51-.23.86-.94.86h-3.09a.89.89,0,0,1-.86-.86Z" style="fill:#006697"></path><path d="M25.18,1.05a1,1,0,0,1,1.05-1h13A12.33,12.33,0,0,1,51.53,12.18,12.4,12.4,0,0,1,39.24,24.59H32.35v13a1.09,1.09,0,0,1-1.05,1.05H26.23a1,1,0,0,1-1.05-1.05ZM39,17.86a5.5,5.5,0,0,0,5.46-5.73A5.31,5.31,0,0,0,39,6.78H32.35V17.86Z" style="fill:#003b5d"></path><path d="M62.5,22.49a18.57,18.57,0,0,1,4.91.72c.11-3.25-2.09-4.8-4.79-4.8a21.23,21.23,0,0,0-5.9.94c-.83.28-1.33-.33-1.44-1.1l-.55-2.87a1.16,1.16,0,0,1,.83-1.54A24.83,24.83,0,0,1,63,12.57c7.39,0,10.86,4.13,10.86,11.08v14a1.18,1.18,0,0,1-1.32,1.16,3.75,3.75,0,0,1-3.81-2.59,11.28,11.28,0,0,1-7.77,3c-5.07,0-8.6-3.26-8.6-8.71C52.36,26,56.05,22.49,62.5,22.49Zm.17,11.58a5.47,5.47,0,0,0,4.58-2.7V27.62a10.19,10.19,0,0,0-3.75-.77c-2.92,0-4.52,1.38-4.52,3.64A3.36,3.36,0,0,0,62.67,34.07Z" style="fill:#003b5d"></path><path d="M79.32,14.06a1.18,1.18,0,0,1,1.32-1.16,3.89,3.89,0,0,1,4,3.47,8.91,8.91,0,0,1,7.11-3.8c3,0,5.51.83,4.8,2.48L94.92,18.8a1.06,1.06,0,0,1-1.49.55,5.1,5.1,0,0,0-2.37-.5,5.54,5.54,0,0,0-4.85,2.65V37.38c0,.94-.6,1.21-1.43,1.21H80.53a1.26,1.26,0,0,1-1.21-1.21Z" style="fill:#003b5d"></path><path d="M98.51,19.29a1.21,1.21,0,0,1-1.16-1.21V14.33a1.15,1.15,0,0,1,1.16-1.21H101V6.06a1.26,1.26,0,0,1,1.21-1.21h4.52a1.18,1.18,0,0,1,1.16,1.21v7.06h6a1.19,1.19,0,0,1,1.22,1.21v3.75a1.26,1.26,0,0,1-1.22,1.21h-6V29.55c0,2.48,1.1,3.47,2.7,3.47a10.53,10.53,0,0,0,3.25-.6,1,1,0,0,1,1.44.66l.71,3.31a1.23,1.23,0,0,1-.71,1.48,13.26,13.26,0,0,1-5.85,1.33c-5.18,0-8.43-3.37-8.43-9.15V19.29Z" style="fill:#003b5d"></path><path d="M119.4,14.06a1.18,1.18,0,0,1,1.33-1.16,3.79,3.79,0,0,1,4,3.31,10.45,10.45,0,0,1,8.21-3.64c8.1,0,10.2,5.46,10.2,11.63V37.38a1.26,1.26,0,0,1-1.21,1.21h-4.47a1.22,1.22,0,0,1-1.21-1.21V24.2c0-3.31-1.32-5.35-4.41-5.35a5.62,5.62,0,0,0-5.52,4V37.38c0,.94-.38,1.21-1.59,1.21h-4.08a1.26,1.26,0,0,1-1.22-1.21Z" style="fill:#003b5d"></path><path d="M159.82,12.57a11.42,11.42,0,0,1,11.68,11.8,15.24,15.24,0,0,1-.11,1.65,1.29,1.29,0,0,1-1.21,1.16H153.86a6.13,6.13,0,0,0,6.34,5.9,8.43,8.43,0,0,0,5.46-1.88c.61-.49,1.27-.55,1.65,0l2.15,2.87a1.07,1.07,0,0,1-.11,1.65,14.33,14.33,0,0,1-9.48,3.48c-7.61,0-12.9-6.07-12.9-13.34S152.26,12.57,159.82,12.57Zm4.74,10.09a4.66,4.66,0,0,0-4.91-4.41c-3.09,0-5.07,1.87-5.4,4.41Z" style="fill:#003b5d"></path><path d="M175.31,14.06a1.18,1.18,0,0,1,1.32-1.16,3.89,3.89,0,0,1,4,3.47,8.89,8.89,0,0,1,7.11-3.8c3,0,5.51.83,4.79,2.48l-1.65,3.75a1.06,1.06,0,0,1-1.49.55,5.1,5.1,0,0,0-2.37-.5,5.54,5.54,0,0,0-4.85,2.65V37.38c0,.94-.61,1.21-1.43,1.21h-4.25a1.26,1.26,0,0,1-1.21-1.21Z" style="fill:#003b5d"></path><path d="M73.26,97.68c-.39-.77.16-1.43,1-1.43h4.3a1.23,1.23,0,0,1,1.1.77l3.87,12.13h0l6.66-12.9a1,1,0,0,1,1-.56h.49a1,1,0,0,1,1,.55l6.63,12.9h.05L103.3,97c.23-.72.78-.77,1.44-.78h3.86a1.08,1.08,0,0,1,1.16,1.43l-7.82,23.94a1.14,1.14,0,0,1-1.15.71h-.22a1.15,1.15,0,0,1-1-.6l-8-15.32h-.05l-8,15.33a1.16,1.16,0,0,1-1,.61h-.33a1.07,1.07,0,0,1-1.1-.72Z" style="fill:#ffc222"></path><path d="M110.08,87.46a4.29,4.29,0,0,1,4.35-4.36,4.34,4.34,0,0,1,4.42,4.35,4.39,4.39,0,0,1-4.41,4.41A4.34,4.34,0,0,1,110.08,87.46Zm1,10a1.23,1.23,0,0,1,1.21-1.21h4.47A1.21,1.21,0,0,1,118,97.43l0,23a1.27,1.27,0,0,1-1.21,1.22h-4.47a1.26,1.26,0,0,1-1.21-1.21Z" style="fill:#ffc222"></path><path d="M120.68,102.39a1.22,1.22,0,0,1-1.16-1.21V97.43a1.14,1.14,0,0,1,1.15-1.22h2.48v-7a1.26,1.26,0,0,1,1.21-1.22h4.52A1.18,1.18,0,0,1,130,89.15v7.06H136a1.19,1.19,0,0,1,1.21,1.22v3.74a1.27,1.27,0,0,1-1.22,1.22h-5.95v10.26c0,2.48,1.1,3.47,2.7,3.47a10.22,10.22,0,0,0,3.25-.61,1,1,0,0,1,1.44.66l.72,3.31a1.25,1.25,0,0,1-.72,1.49,13.41,13.41,0,0,1-5.84,1.32c-5.18,0-8.44-3.36-8.44-9.14V102.39Z" style="fill:#ffc222"></path><path d="M139.36,84.29a1.3,1.3,0,0,1,1.21-1.21H145a1.26,1.26,0,0,1,1.22,1.21v13.5a9.87,9.87,0,0,1,6.5-2.15c8.11,0,10.31,5.62,10.32,12v12.79a1.27,1.27,0,0,1-1.21,1.22h-4.47a1.22,1.22,0,0,1-1.21-1.21V107.6c0-3.53-1.61-5.68-4.64-5.67s-4.63,1.87-5.29,4.46v14.06c0,.72-.33,1.22-1.32,1.22h-4.36a1.26,1.26,0,0,1-1.21-1.21Z" style="fill:#ffc222"></path><path d="M.71,120.06a1.12,1.12,0,0,1-.34-1.38L2,115.37a1,1,0,0,1,1.48-.45,10.25,10.25,0,0,0,5.63,1.64c1.93,0,2.81-.72,2.81-1.82s-1.44-2.21-4.81-3.52c-4.91-1.86-7.12-4.17-7.13-8s2.9-7.45,9.13-7.47a13.84,13.84,0,0,1,7.56,1.86,1.43,1.43,0,0,1,.56,1.76l-1.43,2.93a1.28,1.28,0,0,1-1.6.5,12.21,12.21,0,0,0-5.07-1.26c-1.71,0-2.43.83-2.42,1.66,0,1.16,1.27,1.76,3.64,2.75,4.91,2,8.45,3.73,8.46,8.8,0,4-3.4,7.61-9.79,7.63A14.22,14.22,0,0,1,.71,120.06Z" style="fill:#dca91e"></path><path d="M33,95.66a11.41,11.41,0,0,1,11.72,11.77c0,.38,0,1.27-.1,1.65a1.3,1.3,0,0,1-1.21,1.16l-16.32.05a6.11,6.11,0,0,0,6.35,5.88,8.48,8.48,0,0,0,5.46-1.89c.6-.5,1.26-.55,1.65,0l2.16,2.86a1.07,1.07,0,0,1-.11,1.65,14.38,14.38,0,0,1-9.47,3.5c-7.61,0-12.92-6-12.94-13.31S25.45,95.68,33,95.66Zm4.77,10.08a4.65,4.65,0,0,0-4.92-4.4,5.07,5.07,0,0,0-5.39,4.42Z" style="fill:#dca91e"></path><path d="M47.42,84.27a1.3,1.3,0,0,1,1.21-1.22H53.1a1.3,1.3,0,0,1,1.21,1.21l.1,36.16a1.26,1.26,0,0,1-1.21,1.22H48.73a1.26,1.26,0,0,1-1.21-1.21Z" style="fill:#dca91e"></path><path d="M59,84.24A1.3,1.3,0,0,1,60.21,83h4.46a1.3,1.3,0,0,1,1.22,1.21L66,120.38a1.26,1.26,0,0,1-1.21,1.22H60.31a1.27,1.27,0,0,1-1.22-1.21Z" style="fill:#dca91e"></path><path d="M184.27,95.67a12.59,12.59,0,0,1,9.48,4.29c.55.56.28,1.27-.27,1.82l-2.32,2.54c-.55.61-1.16.33-1.65-.16a7,7,0,0,0-5.08-2.21,6.68,6.68,0,0,0-6.72,7c0,4,2.7,7.06,6.67,7.06a6.76,6.76,0,0,0,5.4-2.81,1.21,1.21,0,0,1,1.6-.17l2.48,2.1c.61.55.88,1.15.44,1.82a11.41,11.41,0,0,1-10.09,5.34,13.31,13.31,0,1,1,.06-26.62Z" style="fill:#ffc222"></path><path d="M208,95.67a13.31,13.31,0,1,1-13,13.23A13.24,13.24,0,0,1,208,95.67ZM208,116a6.9,6.9,0,0,0,6.67-7.11,6.65,6.65,0,1,0-13.28,0A6.86,6.86,0,0,0,208,116Z" style="fill:#ffc222"></path><path d="M224.08,97.15A1.18,1.18,0,0,1,225.4,96a3.78,3.78,0,0,1,4,3.3,10.48,10.48,0,0,1,8.21-3.63c8.11,0,10.2,5.45,10.2,11.63v13.17a1.26,1.26,0,0,1-1.21,1.22H242.1a1.23,1.23,0,0,1-1.21-1.22V107.3c0-3.31-1.32-5.35-4.41-5.35a5.6,5.6,0,0,0-5.51,4v14.55c0,.94-.39,1.22-1.6,1.22h-4.08a1.26,1.26,0,0,1-1.21-1.22Z" style="fill:#ffc222"></path><path d="M253.85,102.39H251.2a1.23,1.23,0,0,1-1.21-1.21V97.43a1.15,1.15,0,0,1,1.21-1.21h2.65V93.57c0-6.67,3.8-11,10.91-11a21.5,21.5,0,0,1,9.76,2.71,1.29,1.29,0,0,1,.39,1.65l-1.55,3.36a1.26,1.26,0,0,1-1.92.5,15.06,15.06,0,0,0-6.62-1.93c-3.36,0-4.08,1.65-4.08,4.52v2.87H277a1.18,1.18,0,0,1,1.21,1.21v23a1.23,1.23,0,0,1-1.21,1.22h-4.47a1.16,1.16,0,0,1-1.21-1.22V102.39H260.74v18.08c0,1.22-.83,1.22-1.82,1.22h-3.86a1.23,1.23,0,0,1-1.21-1.22Z" style="fill:#ffc222"></path><path d="M293.71,95.67a19,19,0,0,1,6.12,1V84.31A1.3,1.3,0,0,1,301,83.1h4.47a1.26,1.26,0,0,1,1.21,1.21v36.44a1.18,1.18,0,0,1-1.32,1.16,3.74,3.74,0,0,1-4-3.2,10.94,10.94,0,0,1-8.16,3.58c-6.95,0-12.18-5.62-12.18-13.34C281.09,101.51,286.1,95.67,293.71,95.67Zm6.12,7.71a10.11,10.11,0,0,0-5.29-1.43c-4.19,0-6.34,3.42-6.34,7s2,7.06,6,7.06a5.85,5.85,0,0,0,5.62-3.53Z" style="fill:#ffc222"></path><path d="M322.6,95.67a11.41,11.41,0,0,1,11.69,11.79c0,.39-.06,1.27-.11,1.66a1.29,1.29,0,0,1-1.22,1.15H316.65a6.11,6.11,0,0,0,6.34,5.9,8.4,8.4,0,0,0,5.45-1.87c.61-.5,1.27-.55,1.66,0l2.15,2.87a1.07,1.07,0,0,1-.11,1.65,14.42,14.42,0,0,1-9.48,3.47c-7.61,0-12.91-6.06-12.91-13.34S315.05,95.67,322.6,95.67Zm4.74,10.08a4.65,4.65,0,0,0-4.91-4.41,5.06,5.06,0,0,0-5.4,4.41Z" style="fill:#ffc222"></path><path d="M337,97.15A1.18,1.18,0,0,1,338.31,96a3.78,3.78,0,0,1,4,3.3,10.52,10.52,0,0,1,8.22-3.63c8.1,0,10.2,5.45,10.2,11.63v13.17a1.27,1.27,0,0,1-1.22,1.22H355a1.23,1.23,0,0,1-1.21-1.22V107.3c0-3.31-1.33-5.35-4.41-5.35a5.62,5.62,0,0,0-5.52,4v14.55c0,.94-.38,1.22-1.6,1.22H338.2a1.27,1.27,0,0,1-1.21-1.22Z" style="fill:#ffc222"></path><path d="M377,95.67a12.59,12.59,0,0,1,9.48,4.29c.56.56.28,1.27-.27,1.82l-2.32,2.54c-.55.61-1.15.33-1.65-.16a6.92,6.92,0,0,0-5.07-2.21,6.69,6.69,0,0,0-6.73,7c0,4,2.7,7.06,6.67,7.06a6.76,6.76,0,0,0,5.4-2.81,1.21,1.21,0,0,1,1.6-.17l2.48,2.1c.61.55.89,1.15.45,1.82a11.41,11.41,0,0,1-10.09,5.34,13.31,13.31,0,1,1,0-26.62Z" style="fill:#ffc222"></path><path d="M400.56,95.67a11.41,11.41,0,0,1,11.69,11.79c0,.39-.06,1.27-.11,1.66a1.29,1.29,0,0,1-1.22,1.15H394.61a6.11,6.11,0,0,0,6.34,5.9,8.4,8.4,0,0,0,5.45-1.87c.61-.5,1.27-.55,1.66,0l2.15,2.87a1.07,1.07,0,0,1-.11,1.65,14.42,14.42,0,0,1-9.49,3.47c-7.6,0-12.9-6.06-12.9-13.34S393,95.67,400.56,95.67Zm4.74,10.08a4.65,4.65,0,0,0-4.91-4.41,5.06,5.06,0,0,0-5.4,4.41Z" style="fill:#ffc222"></path></svg> 